<svg width="274" height="80" viewBox="0 0 274 80" fill="none" xmlns="http://www.w3.org/2000/svg">
<path fill-rule="evenodd" clip-rule="evenodd" d="M38.2664 0.150821C37.2887 -0.0502738 36.2802 -0.0502738 35.3024 0.150822C34.1722 0.383278 33.162 0.949101 32.3589 1.39894L32.1399 1.52123L4.92046 16.6432C4.84521 16.685 4.76767 16.7277 4.68821 16.7714C3.83804 17.2397 2.76907 17.8285 1.94816 18.7193C1.23842 19.4895 0.701317 20.4023 0.372753 21.3967C-0.00727916 22.547 -0.00283289 23.7673 0.000703082 24.7379C0.00103362 24.8286 0.00135603 24.9172 0.00135603 25.0033V54.8605C0.00135603 54.9466 0.00103362 55.0351 0.000703082 55.1258C-0.00283289 56.0964 -0.00727916 57.3168 0.372753 58.467C0.701319 59.4615 1.23843 60.3743 1.94816 61.1444C2.76907 62.0352 3.83804 62.624 4.68821 63.0923C4.76767 63.1361 4.84521 63.1788 4.92047 63.2206L32.14 78.3425L32.3589 78.4648C33.162 78.9146 34.1722 79.4805 35.3025 79.7129C36.2802 79.914 37.2887 79.914 38.2664 79.7129C39.3967 79.4805 40.4069 78.9146 41.21 78.4648L41.4289 78.3425L68.6484 63.2206C68.6817 63.2021 68.7154 63.1834 68.7495 63.1646C68.7926 63.1408 68.8363 63.1167 68.8806 63.0923C69.7308 62.624 70.7998 62.0352 71.6207 61.1444C72.3305 60.3743 72.8676 59.4614 73.1961 58.467C73.5762 57.3168 73.5717 56.0964 73.5682 55.1258C73.5679 55.0351 73.5675 54.9466 73.5675 54.8605V25.0033C73.5675 24.9172 73.5679 24.8287 73.5682 24.738C73.5717 23.7673 73.5762 22.547 73.1961 21.3967C72.8676 20.4023 72.3305 19.4895 71.6207 18.7193C70.7998 17.8285 69.7308 17.2397 68.8806 16.7714L68.8777 16.7698C68.7993 16.7266 68.7227 16.6844 68.6484 16.6432L41.4289 1.52123L41.21 1.39892C40.4069 0.949093 39.3967 0.383276 38.2664 0.150821ZM35.7126 7.95207C36.2701 7.64239 36.5546 7.48592 36.7669 7.38354L36.7844 7.37512L36.802 7.38354C37.0143 7.48592 37.2988 7.64239 37.8563 7.95206L62.315 21.5402L36.7843 35.7239L11.2538 21.5403L35.7126 7.95207ZM7.35797 27.7916L33.106 42.0961L33.1061 70.4636L8.49315 56.7897C7.9048 56.4629 7.60441 56.2942 7.39366 56.16L7.37586 56.1486L7.37453 56.1275C7.3595 55.878 7.35797 55.5335 7.35797 54.8605V27.7916Z" fill="#254441"/>
<path d="M115.648 31.9922C115.518 30.5599 114.939 29.4466 113.91 28.6523C112.895 27.8451 111.443 27.4414 109.555 27.4414C108.305 27.4414 107.263 27.6042 106.43 27.9297C105.596 28.2552 104.971 28.7044 104.555 29.2773C104.138 29.8372 103.923 30.4818 103.91 31.2109C103.884 31.8099 104.001 32.3372 104.262 32.793C104.535 33.2487 104.926 33.6523 105.434 34.0039C105.954 34.3424 106.579 34.6419 107.309 34.9023C108.038 35.1628 108.858 35.3906 109.77 35.5859L113.207 36.3672C115.186 36.7969 116.931 37.3698 118.441 38.0859C119.965 38.8021 121.241 39.6549 122.27 40.6445C123.311 41.6341 124.099 42.7734 124.633 44.0625C125.167 45.3516 125.44 46.7969 125.453 48.3984C125.44 50.9245 124.802 53.0924 123.539 54.9023C122.276 56.7122 120.46 58.099 118.09 59.0625C115.733 60.026 112.888 60.5078 109.555 60.5078C106.208 60.5078 103.292 60.0065 100.805 59.0039C98.3177 58.0013 96.3841 56.4779 95.0039 54.4336C93.6237 52.3893 92.9141 49.8047 92.875 46.6797H102.133C102.211 47.9688 102.556 49.043 103.168 49.9023C103.78 50.7617 104.62 51.4128 105.688 51.8555C106.768 52.2982 108.018 52.5195 109.438 52.5195C110.74 52.5195 111.846 52.3437 112.758 51.9922C113.682 51.6406 114.392 51.1523 114.887 50.5273C115.382 49.9023 115.635 49.1862 115.648 48.3789C115.635 47.6237 115.401 46.9792 114.945 46.4453C114.49 45.8984 113.786 45.4297 112.836 45.0391C111.898 44.6354 110.701 44.2643 109.242 43.9258L105.062 42.9492C101.599 42.1549 98.8711 40.8724 96.8789 39.1016C94.8867 37.3177 93.8971 34.9089 93.9102 31.875C93.8971 29.401 94.5612 27.2331 95.9023 25.3711C97.2435 23.5091 99.099 22.0573 101.469 21.0156C103.839 19.974 106.54 19.4531 109.574 19.4531C112.673 19.4531 115.362 19.9805 117.641 21.0352C119.932 22.0768 121.71 23.5417 122.973 25.4297C124.236 27.3177 124.88 29.5052 124.906 31.9922H115.648ZM146.191 47.0508V30H155.723V60H146.621V54.4141H146.309C145.645 56.25 144.512 57.7083 142.91 58.7891C141.322 59.8568 139.401 60.3906 137.148 60.3906C135.104 60.3906 133.307 59.9219 131.758 58.9844C130.208 58.0469 129.004 56.7383 128.145 55.0586C127.285 53.3659 126.849 51.3867 126.836 49.1211V30H136.387V47.2461C136.4 48.8737 136.829 50.1562 137.676 51.0937C138.522 52.0312 139.674 52.5 141.133 52.5C142.083 52.5 142.936 52.2917 143.691 51.875C144.46 51.4453 145.065 50.8268 145.508 50.0195C145.964 49.1992 146.191 48.2096 146.191 47.0508ZM158.302 71.25V30H167.755V35.1367H168.048C168.438 34.2253 168.992 33.3464 169.708 32.5C170.437 31.6536 171.362 30.9635 172.481 30.4297C173.614 29.8828 174.968 29.6094 176.544 29.6094C178.627 29.6094 180.574 30.1562 182.384 31.25C184.207 32.3437 185.678 34.0299 186.798 36.3086C187.918 38.5872 188.478 41.4909 188.478 45.0195C188.478 48.418 187.937 51.263 186.856 53.5547C185.789 55.8464 184.343 57.5651 182.521 58.7109C180.711 59.8568 178.699 60.4297 176.485 60.4297C174.975 60.4297 173.666 60.1823 172.56 59.6875C171.453 59.1927 170.522 58.5417 169.767 57.7344C169.024 56.9271 168.451 56.0612 168.048 55.1367H167.853V71.25H158.302ZM167.657 45C167.657 46.6146 167.872 48.0208 168.302 49.2187C168.744 50.4167 169.376 51.3477 170.196 52.0117C171.03 52.6628 172.026 52.9883 173.185 52.9883C174.356 52.9883 175.353 52.6628 176.173 52.0117C176.993 51.3477 177.612 50.4167 178.028 49.2187C178.458 48.0208 178.673 46.6146 178.673 45C178.673 43.3854 178.458 41.9857 178.028 40.8008C177.612 39.6159 176.993 38.6979 176.173 38.0469C175.366 37.3958 174.369 37.0703 173.185 37.0703C172.013 37.0703 171.017 37.3893 170.196 38.0273C169.376 38.6654 168.744 39.5768 168.302 40.7617C167.872 41.9466 167.657 43.3594 167.657 45ZM189.982 60V20H217.287V27.8516H199.65V36.0547H215.549V43.9258H199.65V60H189.982ZM218.655 60V30H228.206V60H218.655ZM223.44 26.5039C222.099 26.5039 220.947 26.0612 219.983 25.1758C219.02 24.2773 218.538 23.1966 218.538 21.9336C218.538 20.6836 219.02 19.6159 219.983 18.7305C220.947 17.832 222.099 17.3828 223.44 17.3828C224.795 17.3828 225.947 17.832 226.897 18.7305C227.861 19.6159 228.343 20.6836 228.343 21.9336C228.343 23.1966 227.861 24.2773 226.897 25.1758C225.947 26.0612 224.795 26.5039 223.44 26.5039ZM240.336 20V60H230.785V20H240.336ZM256.938 60.5664C253.8 60.5664 251.092 59.9479 248.813 58.7109C246.548 57.4609 244.803 55.6836 243.579 53.3789C242.368 51.0612 241.763 48.3073 241.763 45.1172C241.763 42.0182 242.375 39.3099 243.599 36.9922C244.823 34.6615 246.548 32.8516 248.774 31.5625C251.001 30.2604 253.625 29.6094 256.646 29.6094C258.781 29.6094 260.734 29.9414 262.505 30.6055C264.276 31.2695 265.806 32.2526 267.095 33.5547C268.384 34.8568 269.386 36.4648 270.103 38.3789C270.819 40.2799 271.177 42.4609 271.177 44.9219V47.3047H245.103V41.7578H262.29C262.277 40.7422 262.036 39.8372 261.567 39.043C261.099 38.2487 260.454 37.6302 259.634 37.1875C258.826 36.7318 257.896 36.5039 256.841 36.5039C255.773 36.5039 254.816 36.7448 253.97 37.2266C253.123 37.6953 252.453 38.3398 251.958 39.1602C251.463 39.9674 251.203 40.8854 251.177 41.9141V47.5586C251.177 48.7826 251.418 49.8568 251.899 50.7812C252.381 51.6927 253.065 52.4023 253.95 52.9102C254.836 53.418 255.89 53.6719 257.114 53.6719C257.961 53.6719 258.729 53.5547 259.419 53.3203C260.109 53.0859 260.701 52.7409 261.196 52.2852C261.691 51.8294 262.062 51.2695 262.31 50.6055L271.079 50.8594C270.715 52.8255 269.914 54.5378 268.677 55.9961C267.453 57.4414 265.845 58.5677 263.853 59.375C261.86 60.1693 259.556 60.5664 256.938 60.5664Z" fill="#254441"/>
</svg>
