<svg width="74" height="80" viewBox="0 0 74 80" fill="none" xmlns="http://www.w3.org/2000/svg">
<path fill-rule="evenodd" clip-rule="evenodd" d="M38.2664 0.150821C37.2887 -0.0502738 36.2802 -0.0502738 35.3024 0.150822C34.1722 0.383278 33.162 0.949101 32.3589 1.39894L32.1399 1.52123L4.92046 16.6432C4.84521 16.685 4.76767 16.7277 4.68821 16.7714C3.83804 17.2397 2.76907 17.8285 1.94816 18.7193C1.23842 19.4895 0.701317 20.4023 0.372753 21.3967C-0.00727916 22.547 -0.00283289 23.7673 0.000703082 24.7379C0.00103362 24.8286 0.00135603 24.9172 0.00135603 25.0033V54.8605C0.00135603 54.9466 0.00103362 55.0351 0.000703082 55.1258C-0.00283289 56.0964 -0.00727916 57.3168 0.372753 58.467C0.701319 59.4615 1.23843 60.3743 1.94816 61.1444C2.76907 62.0352 3.83804 62.624 4.68821 63.0923C4.76767 63.1361 4.84521 63.1788 4.92047 63.2206L32.14 78.3425L32.3589 78.4648C33.162 78.9146 34.1722 79.4805 35.3025 79.7129C36.2802 79.914 37.2887 79.914 38.2664 79.7129C39.3967 79.4805 40.4069 78.9146 41.21 78.4648L41.4289 78.3425L68.6484 63.2206C68.6817 63.2021 68.7154 63.1834 68.7495 63.1646C68.7926 63.1408 68.8363 63.1167 68.8806 63.0923C69.7308 62.624 70.7998 62.0352 71.6207 61.1444C72.3305 60.3743 72.8676 59.4614 73.1961 58.467C73.5762 57.3168 73.5717 56.0964 73.5682 55.1258C73.5679 55.0351 73.5675 54.9466 73.5675 54.8605V25.0033C73.5675 24.9172 73.5679 24.8287 73.5682 24.738C73.5717 23.7673 73.5762 22.547 73.1961 21.3967C72.8676 20.4023 72.3305 19.4895 71.6207 18.7193C70.7998 17.8285 69.7308 17.2397 68.8806 16.7714L68.8777 16.7698C68.7993 16.7266 68.7227 16.6844 68.6484 16.6432L41.4289 1.52123L41.21 1.39892C40.4069 0.949093 39.3967 0.383276 38.2664 0.150821ZM35.7126 7.95207C36.2701 7.64239 36.5546 7.48592 36.7669 7.38354L36.7844 7.37512L36.802 7.38354C37.0143 7.48592 37.2988 7.64239 37.8563 7.95206L62.315 21.5402L36.7843 35.7239L11.2538 21.5403L35.7126 7.95207ZM7.35797 27.7916L33.106 42.0961L33.1061 70.4636L8.49315 56.7897C7.9048 56.4629 7.60441 56.2942 7.39366 56.16L7.37586 56.1486L7.37453 56.1275C7.3595 55.878 7.35797 55.5335 7.35797 54.8605V27.7916Z" fill="black"/>
</svg>
